<?xml version="1.0" standalone="no"?>
<!DOCTYPE svg PUBLIC "-//W3C//DTD SVG 20010904//EN"
 "http://www.w3.org/TR/2001/REC-SVG-20010904/DTD/svg10.dtd">
<svg version="1.0" xmlns="http://www.w3.org/2000/svg"
 width="1024.000000pt" height="1024.000000pt" viewBox="0 0 1024.000000 1024.000000"
 preserveAspectRatio="xMidYMid meet">
<metadata>
Created by potrace 1.14, written by Peter Selinger 2001-2017
</metadata>
<g transform="translate(0.000000,1024.000000) scale(0.100000,-0.100000)"
fill="#000000" stroke="none">
<path d="M4800 9603 c-52 -7 -143 -22 -203 -34 -59 -11 -113 -22 -120 -23 -6
-1 -34 -9 -62 -18 -27 -9 -79 -25 -115 -36 -240 -75 -538 -240 -759 -418 -134
-108 -337 -315 -436 -444 -27 -36 -52 -67 -55 -70 -10 -10 -100 -150 -100
-157 0 -3 -6 -14 -14 -22 -8 -9 -35 -56 -61 -106 -27 -49 -52 -97 -56 -105
-19 -33 -82 -201 -114 -300 -32 -101 -77 -306 -89 -400 -3 -25 -9 -67 -13 -95
-15 -108 -7 -560 12 -665 2 -14 7 -45 10 -70 3 -25 8 -53 11 -62 3 -9 7 -27 9
-40 38 -202 129 -449 247 -669 45 -84 196 -308 228 -339 3 -3 25 -30 50 -60
65 -82 306 -316 396 -386 44 -34 113 -83 154 -110 41 -27 77 -52 80 -56 9 -12
244 -132 325 -166 104 -44 290 -106 355 -118 14 -2 56 -11 94 -20 73 -16 77
-17 245 -38 137 -17 457 -17 596 0 148 18 158 20 245 38 41 8 86 17 100 20 14
3 57 14 95 26 39 12 86 26 105 32 65 19 271 110 363 161 118 65 273 166 322
211 11 10 31 25 45 35 41 26 88 70 216 196 306 304 506 628 632 1025 35 108
77 297 87 385 3 33 9 85 13 115 9 76 9 472 -1 545 -4 33 -9 76 -12 95 -12 97
-16 118 -24 148 -5 18 -10 35 -10 37 0 3 -2 18 -5 33 -3 15 -7 39 -10 53 -13
79 -124 385 -170 469 -8 14 -33 61 -56 105 -23 44 -46 82 -49 85 -4 3 -11 12
-15 20 -45 95 -226 320 -384 478 -70 70 -145 141 -167 157 -22 16 -42 32 -45
35 -3 3 -25 21 -50 40 -25 19 -47 37 -50 40 -3 3 -53 36 -111 73 -317 200
-667 327 -1004 363 -33 4 -64 9 -69 12 -20 12 -513 8 -606 -5z"/>
<path d="M2817 3994 c-1 -1 -51 -4 -112 -8 -132 -7 -232 -21 -370 -51 -11 -3
-29 -7 -40 -9 -56 -13 -190 -58 -270 -91 -104 -43 -300 -141 -318 -160 -7 -7
-26 -19 -43 -28 -26 -13 -150 -102 -164 -117 -3 -3 -30 -24 -60 -47 -59 -45
-219 -206 -311 -313 -128 -148 -348 -518 -348 -585 0 -3 -7 -18 -15 -33 -23
-42 -73 -210 -95 -324 -42 -212 -46 -265 -46 -608 0 -287 1 -310 23 -383 26
-89 74 -193 121 -257 53 -74 150 -170 206 -206 17 -10 32 -22 35 -26 14 -18
184 -93 235 -104 11 -2 43 -8 70 -13 58 -12 7596 -10 7634 1 13 4 49 15 80 24
212 61 423 247 519 459 64 142 67 167 67 515 0 173 -3 338 -7 365 -4 28 -10
70 -13 95 -3 25 -8 56 -11 70 -4 14 -8 39 -11 55 -2 17 -8 44 -13 60 -5 17
-11 41 -14 55 -12 62 -41 150 -96 285 -56 140 -176 349 -268 465 -23 30 -53
68 -65 84 -35 45 -288 298 -332 332 -34 26 -64 48 -150 112 -231 170 -603 319
-890 357 -22 3 -53 7 -70 10 -16 2 -52 7 -80 11 -27 4 -306 8 -620 9 l-570 1
-80 -34 c-77 -33 -149 -61 -170 -66 -5 -2 -23 -8 -38 -14 -15 -7 -40 -15 -55
-18 -15 -4 -31 -9 -37 -13 -5 -3 -14 -6 -20 -8 -5 -1 -61 -16 -123 -32 -63
-17 -132 -33 -155 -36 -23 -3 -49 -8 -58 -11 -10 -3 -30 -6 -45 -9 -16 -2 -45
-6 -64 -9 -206 -34 -642 -41 -797 -12 -10 2 -43 7 -73 11 -30 4 -64 9 -75 11
-11 2 -47 9 -80 15 -164 29 -521 138 -562 171 -7 6 -13 8 -13 5 0 -3 -26 6
-57 20 l-58 27 -513 0 c-283 1 -514 1 -515 0z"/>
</g>
</svg>
